<?xml version="1.0" encoding="utf-8"?>
<!-- Generator: Adobe Illustrator 23.1.0, SVG Export Plug-In . SVG Version: 6.00 Build 0)  -->
<svg version="1.1" id="Capa_1" xmlns="http://www.w3.org/2000/svg" xmlns:xlink="http://www.w3.org/1999/xlink" x="0px" y="0px"
	 viewBox="0 0 89.2 89.2" enable-background="new 0 0 89.2 89.2" xml:space="preserve">
<g>
	
		<path fill="none" stroke="#808181" stroke-width="1.7241" stroke-linecap="round" stroke-linejoin="round" stroke-miterlimit="10" d="
		M35.6,27.2c0,0,5.3-6.2,14.4-3.3c0,0-4,1.6-4.9,2.9"/>
	
		<path fill="none" stroke="#808181" stroke-width="1.8988" stroke-linecap="round" stroke-linejoin="round" stroke-miterlimit="10" d="
		M36.2,61.5c1.6,1.8,6.5,6.1,13.8,3.3c0,0-2.8-1.3-4.2-2.7"/>
	<path fill="none" stroke="#808181" stroke-width="2" stroke-linecap="round" stroke-linejoin="round" stroke-miterlimit="10" d="
		M20.6,34.2c0,0-11.7,7.1-3.8,16.7c0,0,11.4,12.9,27.8,11c0,0,10.9-1.6,18.1-10.3l5.6-7.1c0,0-4.3-6.5-8.3-9.6c0,0-9.7-9.9-24.7-7.3
		C35.4,27.5,28.3,28.6,20.6,34.2z"/>
	<path fill="none" stroke="#808181" stroke-width="2" stroke-linecap="round" stroke-linejoin="round" stroke-miterlimit="10" d="
		M79.4,28.4c0,0-15.3,2.8-10.8,16C68.6,44.4,80.8,44.2,79.4,28.4z"/>
	<path fill="none" stroke="#808181" stroke-width="2" stroke-linecap="round" stroke-linejoin="round" stroke-miterlimit="10" d="
		M79.4,60.4c0,0-15.3-2.8-10.8-16C68.6,44.4,80.8,44.7,79.4,60.4z"/>
	<path fill="none" stroke="#808181" stroke-width="2" stroke-linecap="round" stroke-linejoin="round" stroke-miterlimit="10" d="
		M31.9,28.4c0,0,10.9,10.1-0.9,26.4"/>
	<path fill="none" stroke="#808181" stroke-width="2" stroke-linecap="round" stroke-linejoin="round" stroke-miterlimit="10" d="
		M38.8,40.7c0,0,3-2.7,6.5-1.8c0,0,4.9,0.8-1,6.5c0,0,2.4,5.2-2.2,5.3c0,0-3.2-0.1-4.9-0.7"/>
	<g>
		<circle fill="#808181" cx="26.1" cy="40.7" r="2"/>
	</g>
	<path fill="none" stroke="#808181" stroke-width="2" stroke-linecap="round" stroke-linejoin="round" stroke-miterlimit="10" d="
		M64.3,45c0,0-3.5,6.8-13.8,12.4"/>
</g>
</svg>
