<?xml version="1.0" encoding="utf-8"?>
<!-- Generator: Adobe Illustrator 23.1.0, SVG Export Plug-In . SVG Version: 6.00 Build 0)  -->
<svg version="1.1" id="Capa_1" xmlns="http://www.w3.org/2000/svg" xmlns:xlink="http://www.w3.org/1999/xlink" x="0px" y="0px"
	 viewBox="0 0 89.2 89.2" enable-background="new 0 0 89.2 89.2" xml:space="preserve">
<g>
	<path fill="none" stroke="#808181" stroke-width="2" stroke-linecap="round" stroke-linejoin="round" stroke-miterlimit="10" d="
		M49.3,38.1c-0.1-1.6,0-3.2,0.4-4.7c0.5-1.9,1.6-3.8,3.4-4.3c1.2-0.3,2.4,0,3.6-0.1c2.5-0.1,4.8-2.1,5.4-4.5
		c-0.1,1.8,0.3,3.5,0.2,5.3c-0.1,1.8-0.7,3.5-1.8,5c-0.4,0.6-0.9,1.1-1.5,1.5c-1.3,0.8-2.8,0.9-4.3,1c-1.5,0.1-3.1,0.4-4.1,1.5"/>
	<path fill="none" stroke="#808181" stroke-width="2" stroke-linecap="round" stroke-linejoin="round" stroke-miterlimit="10" d="
		M45.1,49.4c0-1.6,0.4-3.2,0.9-4.6c0.7-1.8,2-3.6,3.8-3.9c1.2-0.2,2.4,0.3,3.5,0.3c2.5,0.2,5-1.5,5.9-3.9c-0.3,1.8-0.1,3.5-0.4,5.3
		c-0.3,1.8-1.1,3.4-2.3,4.7c-0.5,0.5-1,1-1.6,1.3c-1.3,0.7-2.9,0.6-4.4,0.5s-3.1,0-4.2,1"/>
	<path fill="none" stroke="#808181" stroke-width="2" stroke-linecap="round" stroke-linejoin="round" stroke-miterlimit="10" d="
		M41.3,59.8c0.1-1.6,0.5-3.1,1.2-4.6c0.8-1.8,2.1-3.5,4-3.7c1.2-0.1,2.3,0.4,3.5,0.5c2.4,0.3,5-1.3,6-3.6c-0.3,1.7-0.2,3.5-0.6,5.3
		c-0.4,1.7-1.3,3.4-2.6,4.6c-0.5,0.5-1,0.9-1.7,1.2c-1.4,0.6-2.9,0.4-4.4,0.3s-3.1-0.1-4.3,0.8"/>
	<path fill="none" stroke="#808181" stroke-width="2" stroke-linecap="round" stroke-linejoin="round" stroke-miterlimit="10" d="
		M37.4,69.7c0.2-1.6,0.7-3.1,1.4-4.5c0.9-1.7,2.4-3.4,4.2-3.5c1.2-0.1,2.3,0.5,3.5,0.7c2.4,0.4,5.1-0.9,6.2-3.2
		c-0.4,1.7-0.5,3.5-1,5.2c-0.5,1.7-1.5,3.3-2.8,4.5c-0.5,0.5-1.1,0.9-1.7,1.1c-1.4,0.5-2.9,0.2-4.4,0c-1.5-0.2-3.1-0.3-4.3,0.5"/>
	<path fill="none" stroke="#808181" stroke-width="2" stroke-linecap="round" stroke-linejoin="round" stroke-miterlimit="10" d="
		M46.7,37.2c1.1-1.1,2-2.5,2.6-3.9c0.8-1.8,1.2-3.9,0.1-5.5c-0.7-1-1.9-1.5-2.7-2.3c-1.9-1.6-2.4-4.6-1.4-6.9
		c-1.1,1.4-2.5,2.6-3.5,4c-1,1.5-1.6,3.2-1.7,5c0,0.7,0,1.4,0.2,2c0.5,1.4,1.6,2.4,2.7,3.4c1.1,1,2.2,2.2,2.3,3.7"/>
	<path fill="none" stroke="#808181" stroke-width="2" stroke-linecap="round" stroke-linejoin="round" stroke-miterlimit="10" d="
		M52.4,27.5c1.4-1.3,2.8-2.7,3.9-4.3c1.1-1.6,1.9-3.5,2-5.4c0-1.7-0.5-3.3-0.8-4.9C57,11.3,57.2,9.5,57.7,8
		c-0.3,1.4-1.3,3.2-2.6,4.3c-1.3,1.1-2.7,1.9-3.8,3.2c-1.4,1.7-2,3.9-1.9,6s0.8,4.1,1.9,5.8L33.5,80.6c0,0,3.4-7.5-3.5-11.3"/>
	<path fill="none" stroke="#808181" stroke-width="2" stroke-linecap="round" stroke-linejoin="round" stroke-miterlimit="10" d="
		M39.3,59.1c0.9-1.3,1.6-2.8,2-4.3c0.5-1.9,0.5-4.1-0.8-5.4c-0.8-0.8-2.1-1.1-3.1-1.8c-2.1-1.3-3.2-4.1-2.5-6.5
		c-0.8,1.6-2,2.9-2.8,4.5c-0.8,1.6-1.1,3.4-0.9,5.2c0.1,0.7,0.2,1.4,0.5,2c0.7,1.3,2,2.1,3.3,2.9c1.2,0.8,2.5,1.8,2.9,3.2"/>
	<path fill="none" stroke="#808181" stroke-width="2" stroke-linecap="round" stroke-linejoin="round" stroke-miterlimit="10" d="
		M36.2,69.3c0.8-1.4,1.4-2.9,1.7-4.4c0.4-1.9,0.3-4.1-1.1-5.3c-0.9-0.8-2.1-1-3.2-1.5c-2.2-1.1-3.4-3.8-2.9-6.3
		c-0.7,1.6-1.9,3-2.5,4.7c-0.7,1.6-0.9,3.5-0.6,5.2c0.1,0.7,0.3,1.3,0.7,1.9c0.8,1.3,2.1,2,3.4,2.7c1.3,0.7,2.6,1.6,3.1,3.1"/>
	<path fill="none" stroke="#808181" stroke-width="2" stroke-linecap="round" stroke-linejoin="round" stroke-miterlimit="10" d="
		M42.8,48.7c1-1.3,1.7-2.7,2.2-4.2c0.6-1.8,0.7-4-0.6-5.4c-0.8-0.9-2-1.2-3-1.9c-2-1.4-3-4.2-2.2-6.6c-0.9,1.5-2.2,2.8-3,4.4
		c-0.8,1.6-1.2,3.4-1.1,5.1c0,0.7,0.2,1.4,0.5,2c0.6,1.3,1.9,2.2,3.1,3.1c1.2,0.9,2.4,1.9,2.7,3.4"/>
</g>
</svg>
