<?xml version="1.0" standalone="no"?>
<!DOCTYPE svg PUBLIC "-//W3C//DTD SVG 20010904//EN"
 "http://www.w3.org/TR/2001/REC-SVG-20010904/DTD/svg10.dtd">
<svg version="1.0" xmlns="http://www.w3.org/2000/svg"
 width="512.000000pt" height="512.000000pt" viewBox="0 0 512.000000 512.000000"
 preserveAspectRatio="xMidYMid meet">

<g transform="translate(0.000000,512.000000) scale(0.100000,-0.100000)"
fill="#000000" stroke="none">
<path d="M51 5106 c-51 -28 -50 -14 -50 -711 -1 -730 -1 -731 69 -873 49 -98
144 -199 238 -252 l62 -35 2 -1505 3 -1505 21 -46 c31 -66 78 -114 142 -146
47 -23 70 -28 132 -28 125 0 222 62 274 174 l21 46 3 1505 3 1505 62 35 c93
53 188 154 237 252 70 142 70 144 70 871 0 703 1 690 -55 715 -33 15 -57 15
-90 0 -55 -25 -55 -20 -55 -618 l0 -550 -90 0 -90 0 0 550 c0 404 -3 556 -12
575 -13 29 -55 55 -88 55 -33 0 -75 -26 -88 -55 -9 -19 -12 -171 -12 -575 l0
-550 -90 0 -90 0 0 550 c0 404 -3 556 -12 575 -21 47 -82 67 -133 43 -55 -25
-55 -20 -55 -618 l0 -550 -90 0 -90 0 0 550 c0 404 -3 556 -12 575 -22 48 -88
68 -137 41z m1076 -1400 c-17 -107 -132 -242 -243 -285 -32 -13 -71 -36 -86
-52 l-28 -29 0 -1531 c0 -1664 3 -1571 -55 -1597 -33 -15 -57 -15 -90 0 -58
26 -55 -67 -55 1597 l0 1529 -26 31 c-14 17 -31 31 -38 31 -31 0 -136 64 -183
111 -53 53 -101 138 -110 195 l-6 34 463 0 463 0 -6 -34z"/>
<path d="M4934 5081 c-91 -61 -220 -177 -306 -275 -211 -238 -356 -536 -420
-858 -22 -110 -22 -135 -26 -889 -3 -857 -4 -846 59 -971 23 -45 66 -98 155
-188 l124 -126 2 -775 c3 -763 3 -775 24 -820 31 -66 78 -114 142 -146 47 -23
70 -28 132 -28 125 0 222 62 274 174 l21 46 3 2405 c2 1799 -1 2412 -9 2433
-13 31 -55 57 -92 57 -14 0 -51 -18 -83 -39z m-25 -4824 c-13 -30 -55 -57 -89
-57 -29 0 -76 26 -86 47 -5 10 -11 377 -14 815 l-5 797 -141 143 c-92 94 -149
160 -165 193 l-24 50 -3 734 c-2 608 0 755 13 850 44 343 197 658 435 900 l85
86 3 -2265 c2 -1690 -1 -2272 -9 -2293z"/>
<path d="M2340 4459 c-184 -21 -411 -85 -575 -163 -100 -47 -125 -72 -125
-124 0 -46 46 -92 91 -92 18 0 91 24 163 54 290 121 586 161 889 121 363 -48
674 -195 946 -450 94 -87 105 -95 142 -95 58 0 99 42 99 101 0 39 -5 47 -75
115 -311 302 -704 486 -1137 533 -112 13 -308 12 -418 0z"/>
<path d="M2415 3974 c-219 -24 -462 -114 -654 -242 -112 -74 -299 -261 -373
-372 -108 -163 -179 -330 -220 -519 -31 -137 -30 -423 0 -562 124 -567 547
-989 1115 -1111 146 -31 408 -31 553 0 146 31 244 66 375 134 381 195 648 549
741 981 29 136 31 398 4 532 -89 450 -368 818 -771 1018 -190 94 -364 136
-585 142 -80 2 -163 1 -185 -1z m326 -209 c391 -59 731 -306 912 -665 50 -100
95 -242 112 -359 100 -663 -360 -1286 -1025 -1387 -527 -79 -1049 199 -1280
681 -273 571 -64 1249 485 1577 232 139 522 195 796 153z"/>
<path d="M2514 3470 c-33 -13 -54 -50 -54 -93 0 -100 140 -134 186 -46 45 88
-40 177 -132 139z"/>
<path d="M2146 3379 c-266 -134 -454 -398 -495 -694 -18 -130 -16 -152 23
-191 38 -38 70 -43 115 -19 35 18 46 47 59 161 12 105 46 211 94 292 50 86
179 209 273 261 44 25 88 51 97 59 26 22 33 74 14 110 -32 61 -89 68 -180 21z"/>
<path d="M3948 1532 c-9 -4 -70 -63 -134 -131 -259 -271 -519 -423 -867 -506
-416 -99 -876 -30 -1242 185 -56 33 -102 53 -122 53 -69 2 -119 -70 -93 -134
16 -37 71 -74 215 -146 806 -404 1785 -189 2348 515 17 22 27 47 27 68 0 62
-79 119 -132 96z"/>
<path d="M1231 1366 c-13 -7 -30 -24 -37 -37 -56 -101 76 -201 157 -120 81 81
-19 213 -120 157z"/>
</g>
</svg>
