<?xml version="1.0" encoding="utf-8"?>
<!-- Generator: Adobe Illustrator 23.1.0, SVG Export Plug-In . SVG Version: 6.00 Build 0)  -->
<svg version="1.1" id="Capa_1" xmlns="http://www.w3.org/2000/svg" xmlns:xlink="http://www.w3.org/1999/xlink" x="0px" y="0px"
	 viewBox="0 0 89.2 89.2" enable-background="new 0 0 89.2 89.2" xml:space="preserve">
<g>
	<path fill="none" stroke="#808181" stroke-width="2" stroke-linecap="round" stroke-linejoin="round" stroke-miterlimit="10" d="
		M45.5,13.6c5.1-3.2,13.1-1,15.6,1.6c4.4,4.6,5.5,11.5,2.8,17c-0.6,1.2-1.1,2.5-1.8,3.6c-3.6,5.6-4.6,11.7-3.9,18.4
		c0.5,5.6-1.6,10.5-5.7,14.5c-3.7,3.6-8,6.5-13.1,8c-4.5,1.3-7.8-0.2-10.6-3.9C23,64.9,26,52,32.7,45.1c2-2.1,2.8-4.1,2.6-7
		c-0.3-4.7,0-9.4,1.1-14C37.8,19.1,41.1,15.9,45.5,13.6z"/>
	<g>
		<path fill="none" stroke="#808181" stroke-width="2" stroke-linecap="round" stroke-linejoin="round" d="M29.9,68.7
			c6.9-14.4,15.8-29.4,9.6-45.9"/>
	</g>
	<g>
		<path fill="none" stroke="#808181" stroke-width="2" stroke-linecap="round" stroke-linejoin="round" d="M41.5,69.5
			c1.1-3.3,2.5-6.4,3.6-9.6c2.8-7.8,4.7-14.9,5.1-24.4c0.2-5.6,1.5-11.4-1-16.4"/>
	</g>
	<g>
		<path fill="none" stroke="#808181" stroke-width="2" stroke-linecap="round" stroke-linejoin="round" d="M34.7,72.9
			c4.1-9.9,7.4-20.2,9.8-30.7c1.8-7.9,3.1-16.4,0-23.8"/>
	</g>
	<g>
		<path fill="none" stroke="#808181" stroke-width="2" stroke-linecap="round" stroke-linejoin="round" d="M38.4,26.6
			c5.9-1.2,9.5-1.5,13.5-1.4c1.2,0,4.7,0.5,5.7,0.8"/>
	</g>
	<g>
		<path fill="none" stroke="#808181" stroke-width="2" stroke-linecap="round" stroke-linejoin="round" d="M37.8,34.5
			c2.9-0.9,5.9-1.6,8.9-2c4.6-0.7,6.5,0.5,8.5,2.6c0.2,0.3,0.4,0.8,0,0.8"/>
	</g>
	<g>
		<path fill="none" stroke="#808181" stroke-width="2" stroke-linecap="round" stroke-linejoin="round" d="M38.3,43.8
			c4.1-0.8,8.4-0.3,12.2,1.5"/>
	</g>
	<g>
		<path fill="none" stroke="#808181" stroke-width="2" stroke-linecap="round" stroke-linejoin="round" d="M29.8,53.8
			c2.9-0.3,5.9-0.6,8.8-0.8c2-0.2,4-0.4,5.9,0.2c2.1,0.6,3.8,1.9,5.6,3.2"/>
	</g>
	<g>
		<path fill="none" stroke="#808181" stroke-width="2" stroke-linecap="round" stroke-linejoin="round" d="M29.2,63.1
			c4.1-1.9,8.7-2.5,13.2-1.6c2.2,0.4,4.5,1.3,5.7,3.2c-0.2-0.1-0.3-0.3-0.5-0.4"/>
	</g>
</g>
</svg>
